<?xml version="1.0" encoding="utf-8"?>
<!-- Generator: Adobe Illustrator 16.0.0, SVG Export Plug-In . SVG Version: 6.00 Build 0)  -->
<!DOCTYPE svg PUBLIC "-//W3C//DTD SVG 1.1//EN" "http://www.w3.org/Graphics/SVG/1.1/DTD/svg11.dtd">
<svg version="1.1" xmlns="http://www.w3.org/2000/svg" xmlns:xlink="http://www.w3.org/1999/xlink" x="0px" y="0px"
	 width="683.347px" height="356.254px" viewBox="0 0 683.347 356.254" enable-background="new 0 0 683.347 356.254"
	 xml:space="preserve">
<g id="BACKGROUND">
	<g>
		<rect x="-38.653" y="-95" fill="#FFFFFF" width="750" height="500"/>
	</g>
</g>
<g id="Layer_4">
	<g>
		<path fill="#FFFFFF" d="M591.984,168.138c-14.141,0-27.438,3.56-39.083,9.805c-6.599-34.769-33.25-62.366-67.482-70.416
			c0.014-0.826,0.122-1.632,0.122-2.465c0-75.112-60.891-136.002-136.002-136.002c-65.631,0-120.388,46.493-133.175,108.337
			c-6.352-1.206-12.882-1.899-19.581-1.899c-57.695,0-104.469,46.77-104.469,104.468c0,6.086,0.629,12.019,1.633,17.819
			c-0.545-0.013-1.08-0.081-1.633-0.081c-37.551,0-68,30.444-68,68c0,37.553,30.449,68.002,68,68.002h499.67
			c45.721,0,82.779-37.061,82.779-82.781C674.764,205.202,637.705,168.138,591.984,168.138z"/>
		<path opacity="0.23" fill="#90A7F5" d="M591.984,189.536c-14.141,0-27.438,3.103-39.083,8.542
			c-6.599-30.278-33.25-54.306-67.482-61.314c0.014-0.724,0.122-1.42,0.122-2.148c0-65.402-60.891-118.422-136.002-118.422
			c-65.631,0-120.388,40.482-133.175,94.332c-6.352-1.049-12.882-1.653-19.581-1.653c-57.695,0-104.469,40.725-104.469,90.964
			c0,5.301,0.629,10.464,1.633,15.517c-0.545-0.013-1.08-0.07-1.633-0.07c-37.551,0-68,26.509-68,59.211
			c0,32.703,30.449,59.211,68,59.211h499.67c45.721,0,82.779-32.272,82.779-72.086C674.764,221.813,637.705,189.536,591.984,189.536
			z"/>
		<path fill="#FFFFFF" d="M411.428,125.009c0,0-81.375-3.005-107.192,68.151c0,0,30.967-34.086,107.192-37.818
			c76.218,3.732,107.186,37.818,107.186,37.818C492.795,122.004,411.428,125.009,411.428,125.009z"/>
	</g>
</g>
<g id="Layer_5">
	<g>
		<path fill="#FFFFFF" d="M-4.069,345.754c0.896,0,1.739,0.225,2.478,0.621c0.419-2.205,2.108-3.955,4.28-4.465
			c-0.002-0.053-0.008-0.104-0.008-0.156c0-4.764,3.861-8.625,8.625-8.625c4.162,0,7.635,2.947,8.445,6.869
			c0.402-0.076,0.816-0.119,1.242-0.119c3.658,0,6.625,2.965,6.625,6.625c0,0.385-0.041,0.762-0.104,1.129
			c0.034,0,0.068-0.004,0.104-0.004c2.381,0,4.313,1.93,4.313,4.313c0,2.381-1.932,4.313-4.313,4.313H-4.069
			c-2.9,0-5.25-2.352-5.25-5.25C-9.319,348.104-6.97,345.754-4.069,345.754z"/>
		<path opacity="0.23" fill="#90A7F5" d="M8.939,337.726c0.896,0,1.739,0.189,2.478,0.522c0.419-1.853,2.108-3.321,4.28-3.751
			c-0.002-0.043-0.008-0.086-0.008-0.131c0-4,3.861-7.242,8.625-7.242c4.162,0,7.635,2.476,8.445,5.77
			c0.402-0.064,0.816-0.102,1.242-0.102c3.658,0,6.625,2.49,6.625,5.563c0,0.324-0.041,0.64-0.104,0.949
			c0.034-0.001,0.068-0.005,0.104-0.005c2.381,0,4.313,1.622,4.313,3.622s-1.932,3.622-4.313,3.622H8.939
			c-2.9,0-5.25-1.975-5.25-4.41C3.689,339.7,6.039,337.726,8.939,337.726z"/>
		<path fill="#FFFFFF" d="M6.318,343.23c0,0-4.796-0.178-6.318,4.017c0,0,1.825-2.009,6.318-2.229
			c4.493,0.221,6.319,2.229,6.319,2.229C11.115,343.053,6.318,343.23,6.318,343.23z"/>
	</g>
</g>
<g id="OBJECTS">
	<g opacity="0.5">
		<g>
			<path fill="#91A8F6" d="M489.955,221.382c0,2.127-1.729,3.857-3.855,3.857c-2.128,0-3.858-1.73-3.858-3.857
				s1.73-3.857,3.858-3.857C488.226,217.524,489.955,219.255,489.955,221.382z M488.044,221.382c0-1.073-0.872-1.946-1.944-1.946
				c-1.074,0-1.947,0.873-1.947,1.946s0.873,1.946,1.947,1.946C487.172,223.328,488.044,222.455,488.044,221.382z"/>
			<g>
				<path fill="#91A8F6" d="M554.799,80.148h-21.847c-0.528,0-0.956,0.428-0.956,0.956s0.428,0.956,0.956,0.956h21.847
					c0.528,0,0.956-0.428,0.956-0.956S555.327,80.148,554.799,80.148z"/>
				<path fill="#91A8F6" d="M525.999,80.145h-4.269c-0.528,0-0.956,0.428-0.956,0.956s0.428,0.956,0.956,0.956h4.269
					c0.527,0,0.956-0.428,0.956-0.956S526.526,80.145,525.999,80.145z"/>
				<path fill="#91A8F6" d="M544.534,87.76c0,0.528-0.428,0.956-0.955,0.956h-2.732c-0.528,0-0.956-0.428-0.956-0.956
					s0.428-0.956,0.956-0.956h2.732C544.106,86.804,544.534,87.232,544.534,87.76z M537.023,87.76c0,0.528-0.428,0.956-0.956,0.956
					h-4.778c-0.528,0-0.956-0.428-0.956-0.956s0.428-0.956,0.956-0.956h4.778C536.596,86.804,537.023,87.232,537.023,87.76z
					 M527.466,87.76c0,0.528-0.428,0.956-0.955,0.956h-4.779c-0.527,0-0.955-0.428-0.955-0.956s0.428-0.956,0.955-0.956h4.779
					C527.038,86.804,527.466,87.232,527.466,87.76z"/>
			</g>
			<g>
				<path fill="#91A8F6" d="M200.348,144.041c-0.527,0-0.956,0.428-0.956,0.956v2.217c0,0.528,0.429,0.956,0.956,0.956
					c0.528,0,0.956-0.428,0.956-0.956v-2.217C201.304,144.468,200.876,144.041,200.348,144.041z"/>
				<path fill="#91A8F6" d="M197.847,141.816h-2.218c-0.527,0-0.955,0.428-0.955,0.956s0.428,0.956,0.955,0.956h2.218
					c0.527,0,0.955-0.428,0.955-0.956S198.374,141.816,197.847,141.816z"/>
				<path fill="#91A8F6" d="M200.348,137.224c-0.527,0-0.956,0.428-0.956,0.956v2.216c0,0.527,0.429,0.956,0.956,0.956
					c0.528,0,0.956-0.428,0.956-0.956v-2.216C201.304,137.651,200.876,137.224,200.348,137.224z"/>
				<path fill="#91A8F6" d="M205.066,141.664h-2.218c-0.527,0-0.955,0.428-0.955,0.956c0,0.528,0.428,0.956,0.955,0.956h2.218
					c0.528,0,0.956-0.428,0.956-0.956C206.022,142.092,205.595,141.664,205.066,141.664z"/>
			</g>
			<g>
				<path fill="#91A8F6" d="M440.749,82.076c-0.528,0-0.956,0.428-0.956,0.956v2.217c0,0.528,0.428,0.956,0.956,0.956
					c0.527,0,0.955-0.428,0.955-0.956v-2.217C441.704,82.504,441.276,82.076,440.749,82.076z"/>
				<path fill="#91A8F6" d="M438.247,79.852h-2.217c-0.527,0-0.956,0.428-0.956,0.956s0.429,0.956,0.956,0.956h2.217
					c0.528,0,0.956-0.428,0.956-0.956S438.775,79.852,438.247,79.852z"/>
				<path fill="#91A8F6" d="M440.749,75.259c-0.528,0-0.956,0.428-0.956,0.956v2.216c0,0.528,0.428,0.956,0.956,0.956
					c0.527,0,0.955-0.428,0.955-0.956v-2.216C441.704,75.687,441.276,75.259,440.749,75.259z"/>
				<path fill="#91A8F6" d="M445.468,79.7h-2.218c-0.527,0-0.956,0.428-0.956,0.956c0,0.528,0.429,0.956,0.956,0.956h2.218
					c0.527,0,0.955-0.428,0.955-0.956C446.423,80.128,445.995,79.7,445.468,79.7z"/>
			</g>
			<g>
				<path fill="#91A8F6" d="M351.643,34.604h-21.847c-0.527,0-0.955,0.428-0.955,0.956s0.428,0.956,0.955,0.956h21.847
					c0.528,0,0.956-0.428,0.956-0.956S352.171,34.604,351.643,34.604z"/>
				<path fill="#91A8F6" d="M322.843,34.6h-4.269c-0.528,0-0.956,0.428-0.956,0.956s0.428,0.956,0.956,0.956h4.269
					c0.528,0,0.956-0.428,0.956-0.956S323.371,34.6,322.843,34.6z"/>
				<path fill="#91A8F6" d="M341.379,42.216c0,0.528-0.429,0.956-0.956,0.956h-2.732c-0.528,0-0.956-0.428-0.956-0.956
					s0.428-0.956,0.956-0.956h2.732C340.95,41.26,341.379,41.688,341.379,42.216z M333.867,42.216c0,0.528-0.428,0.956-0.955,0.956
					h-4.779c-0.527,0-0.956-0.428-0.956-0.956s0.429-0.956,0.956-0.956h4.779C333.439,41.26,333.867,41.688,333.867,42.216z
					 M324.31,42.216c0,0.528-0.428,0.956-0.955,0.956h-4.778c-0.528,0-0.956-0.428-0.956-0.956s0.428-0.956,0.956-0.956h4.778
					C323.882,41.26,324.31,41.688,324.31,42.216z"/>
			</g>
			<circle fill="#91A8F6" cx="589.849" cy="134.734" r="3.375"/>
			<g>
				<path fill="#91A8F6" d="M144.049,300.093h21.847c0.527,0,0.956-0.428,0.956-0.955c0-0.528-0.429-0.956-0.956-0.956h-21.847
					c-0.528,0-0.956,0.428-0.956,0.956C143.093,299.665,143.521,300.093,144.049,300.093z"/>
				<path fill="#91A8F6" d="M132.826,300.097h4.27c0.527,0,0.955-0.428,0.955-0.955c0-0.528-0.428-0.956-0.955-0.956h-4.27
					c-0.527,0-0.955,0.428-0.955,0.956C131.871,299.669,132.299,300.097,132.826,300.097z"/>
			</g>
			<path fill="#91A8F6" d="M556.854,315.636c0,0,1.305,9.31-9.569,9.095c0,0,9.341,0.096,9.096,8.832c0,0,0.84-6.872,9.411-8.408
				C565.792,325.154,558.549,326.816,556.854,315.636z"/>
			<path fill="#91A8F6" d="M608.773,184.323c0,0,1.305,9.31-9.57,9.095c0,0,9.342,0.096,9.096,8.831c0,0,0.841-6.872,9.412-8.407
				C617.711,193.842,610.468,195.504,608.773,184.323z"/>
			<path fill="#91A8F6" d="M263.868,58.28c0,0,1.305,9.309-9.569,9.094c0,0,9.341,0.096,9.096,8.831c0,0,0.84-6.872,9.412-8.407
				C272.807,67.798,265.563,69.46,263.868,58.28z"/>
			<path fill="#91A8F6" d="M170.256,83.991c0,0,1.305,9.309-9.569,9.094c0,0,9.341,0.096,9.096,8.832c0,0,0.84-6.872,9.412-8.408
				C179.194,93.509,171.95,95.171,170.256,83.991z"/>
			<path fill="#91A8F6" d="M226.996,44.2c0,0,0.454,3.245-3.335,3.17c0,0,3.256,0.033,3.169,3.079c0,0,0.293-2.396,3.28-2.932
				C230.11,47.517,227.586,48.096,226.996,44.2z"/>
			<path fill="#91A8F6" d="M397.287,156.07c0,0,0.454,3.244-3.335,3.17c0,0,3.256,0.033,3.169,3.078c0,0,0.293-2.396,3.28-2.932
				C400.401,159.387,397.877,159.967,397.287,156.07z"/>
			<path fill="#91A8F6" d="M81.764,211.533c0,0,0.454,3.244-3.335,3.17c0,0,3.256,0.033,3.169,3.078c0,0,0.293-2.396,3.28-2.931
				C84.878,214.851,82.354,215.43,81.764,211.533z"/>
			<path fill="#91A8F6" d="M364.909,299.014c0,0,0.454,3.244-3.336,3.17c0,0,3.257,0.033,3.17,3.078c0,0,0.293-2.396,3.28-2.931
				C368.023,302.331,365.499,302.91,364.909,299.014z"/>
			<g>
				<path fill="#91A8F6" d="M236.065,246.714h-21.213c-2.714,0-4.922-2.207-4.922-4.921c0-2.66,2.123-4.836,4.765-4.919
					c0.069-4.141,3.46-7.487,7.616-7.487c2.58,0,4.979,1.313,6.379,3.458c2.859-0.408,5.411,1.39,6.135,4.026h1.24
					c2.714,0,4.922,2.209,4.922,4.922C240.987,244.507,238.779,246.714,236.065,246.714z M214.853,238.328
					c-1.911,0-3.466,1.555-3.466,3.465c0,1.911,1.555,3.465,3.466,3.465h21.213c1.911,0,3.465-1.554,3.465-3.465
					c0-1.91-1.554-3.465-3.465-3.465h-2.448l-0.098-0.614c-0.368-2.317-2.567-3.938-5.021-3.353l-0.536,0.129l-0.269-0.481
					c-1.09-1.953-3.152-3.166-5.383-3.166c-3.397,0-6.161,2.765-6.161,6.161c0,0.181,0.013,0.357,0.027,0.533l0.067,0.791H214.853z"
					/>
			</g>
			<g>
				<path fill="#91A8F6" d="M614.505,67.188h-21.213c-2.714,0-4.922-2.208-4.922-4.921c0-2.661,2.124-4.836,4.765-4.919
					c0.07-4.14,3.46-7.487,7.616-7.487c2.58,0,4.979,1.312,6.379,3.458c2.857-0.408,5.411,1.39,6.135,4.027h1.24
					c2.714,0,4.922,2.208,4.922,4.922S617.219,67.188,614.505,67.188z M593.292,58.802c-1.911,0-3.465,1.555-3.465,3.465
					s1.554,3.465,3.465,3.465h21.213c1.911,0,3.466-1.554,3.466-3.465s-1.555-3.465-3.466-3.465h-2.448l-0.097-0.614
					c-0.369-2.317-2.57-3.936-5.021-3.352l-0.536,0.128l-0.269-0.481c-1.09-1.953-3.152-3.166-5.383-3.166
					c-3.397,0-6.161,2.764-6.161,6.162c0,0.18,0.013,0.357,0.027,0.533l0.067,0.791H593.292z"/>
			</g>
			<g>
				<path fill="#91A8F6" d="M286.039,121.35h-21.213c-2.714,0-4.922-2.208-4.922-4.921c0-2.662,2.123-4.836,4.765-4.919
					c0.07-4.14,3.459-7.487,7.616-7.487c2.58,0,4.978,1.312,6.379,3.458c2.857-0.408,5.411,1.39,6.135,4.027h1.24
					c2.714,0,4.922,2.208,4.922,4.921S288.753,121.35,286.039,121.35z M264.826,112.964c-1.911,0-3.466,1.555-3.466,3.465
					s1.555,3.465,3.466,3.465h21.213c1.911,0,3.465-1.554,3.465-3.465s-1.554-3.465-3.465-3.465h-2.448l-0.098-0.614
					c-0.368-2.317-2.569-3.936-5.021-3.352l-0.536,0.128l-0.269-0.481c-1.09-1.954-3.152-3.167-5.383-3.167
					c-3.397,0-6.161,2.764-6.161,6.162c0,0.18,0.012,0.357,0.027,0.533l0.067,0.791H264.826z"/>
			</g>
		</g>
		<g>
			<g>
				<polygon fill="#445EEA" points="246.787,182.939 257.04,193.936 335.192,161.338 				"/>
				<polygon fill="#91A8F6" points="250.433,146.655 242.714,158.3 247.933,169.712 236.225,171.703 225.879,194.416 337.7,160.578 
									"/>
				<polygon fill="#445EEA" points="247.933,169.712 242.714,158.3 303.281,161.133 				"/>
			</g>
			<g>
				<path fill="#445EEA" d="M242.046,282.569c-0.859,0-1.722-0.005-2.581-0.015c-0.868-0.011-1.56-0.72-1.549-1.585
					c0.01-0.864,0.758-1.65,1.584-1.548c4.06,0.045,8.088-0.019,12.509-0.205c0.023,0,0.046,0,0.066,0
					c0.837,0,1.531,0.658,1.566,1.501c0.036,0.864-0.635,1.597-1.5,1.633C248.601,282.498,245.297,282.569,242.046,282.569z
					 M226.905,281.952c-0.047,0-0.093,0-0.139-0.005c-4.316-0.37-8.564-0.924-12.623-1.646c-0.853-0.15-1.419-0.965-1.269-1.819
					c0.153-0.85,0.97-1.393,1.819-1.268c3.965,0.706,8.118,1.247,12.343,1.609c0.862,0.074,1.5,0.832,1.427,1.697
					C228.395,281.338,227.708,281.952,226.905,281.952z M202.17,277.429c-0.15,0-0.306-0.022-0.459-0.071
					c-4.123-1.263-8.144-2.807-11.947-4.592c-0.783-0.368-1.12-1.302-0.753-2.085c0.367-0.788,1.309-1.12,2.085-0.753
					c3.671,1.723,7.552,3.213,11.534,4.435c0.826,0.253,1.293,1.128,1.038,1.957C203.461,276.992,202.841,277.429,202.17,277.429z
					 M179.47,266.736c-0.299,0-0.6-0.084-0.868-0.263c-3.551-2.37-6.944-5.033-10.085-7.922c-0.638-0.584-0.679-1.576-0.092-2.214
					s1.582-0.677,2.215-0.092c3.021,2.775,6.286,5.34,9.702,7.62c0.72,0.479,0.913,1.454,0.434,2.174
					C180.475,266.492,179.977,266.736,179.47,266.736z M160.998,249.763c-0.459,0-0.916-0.201-1.228-0.589
					c-2.663-3.348-5.084-6.919-7.194-10.621c-0.429-0.75-0.165-1.709,0.587-2.138c0.753-0.421,1.71-0.163,2.139,0.587
					c2.03,3.559,4.359,6.998,6.924,10.218c0.538,0.679,0.426,1.663-0.25,2.204C161.687,249.653,161.343,249.763,160.998,249.763z
					 M148.584,227.96c-0.633,0-1.229-0.388-1.467-1.016c-1.531-4.063-2.718-8.22-3.523-12.353c-0.166-0.85,0.388-1.674,1.237-1.84
					c0.857-0.176,1.674,0.389,1.84,1.237c0.772,3.962,1.91,7.95,3.38,11.849c0.306,0.811-0.104,1.714-0.913,2.021
					C148.954,227.927,148.768,227.96,148.584,227.96z M143.583,203.366c-0.818,0-1.508-0.638-1.561-1.467
					c-0.164-2.562-0.245-5.259-0.245-8.011v-0.636c0.005-1.362,0.03-2.728,0.074-4.095c0.027-0.848,0.722-1.516,1.566-1.516
					c0.015,0,0.033,0,0.051,0c0.864,0.028,1.544,0.753,1.516,1.617c-0.044,1.338-0.069,2.672-0.074,3.998v0.631
					c0,2.688,0.081,5.316,0.239,7.812c0.057,0.864-0.6,1.61-1.464,1.663C143.652,203.366,143.619,203.366,143.583,203.366z"/>
			</g>
			<g>
				<path fill="#445EEA" d="M156.763,178.512c-2.393,0-4.75-0.027-7.064-0.086c-0.864-0.021-1.548-0.74-1.525-1.607
					c0.021-0.853,0.72-1.526,1.566-1.526c0.013,0,0.025,0,0.041,0c4.047,0.103,8.218,0.112,12.521,0.033
					c0.975-0.051,1.582,0.671,1.598,1.536c0.018,0.867-0.672,1.582-1.536,1.598C160.473,178.494,158.605,178.512,156.763,178.512z
					 M174.915,177.986c-0.824,0-1.516-0.646-1.561-1.479c-0.049-0.862,0.611-1.603,1.477-1.651
					c4.054-0.229,8.264-0.533,12.514-0.908c0.84-0.089,1.625,0.562,1.699,1.424c0.077,0.862-0.562,1.623-1.424,1.699
					c-4.283,0.378-8.525,0.687-12.615,0.914C174.977,177.986,174.946,177.986,174.915,177.986z M137.164,177.787
					c-0.04,0-0.081,0-0.125-0.002c-4.362-0.34-8.607-0.805-12.618-1.378c-0.857-0.122-1.451-0.916-1.329-1.773
					c0.122-0.854,0.934-1.434,1.773-1.329c3.944,0.564,8.123,1.021,12.419,1.352c0.862,0.069,1.508,0.822,1.441,1.688
					C138.662,177.165,137.974,177.787,137.164,177.787z M200.007,175.785c-0.783,0-1.462-0.588-1.554-1.386
					c-0.103-0.86,0.516-1.638,1.375-1.737c4.072-0.478,8.223-1.016,12.45-1.617c0.859-0.136,1.653,0.475,1.773,1.328
					c0.122,0.857-0.473,1.651-1.329,1.773c-4.259,0.607-8.435,1.15-12.532,1.628C200.129,175.782,200.068,175.785,200.007,175.785z
					 M112.252,174.178c-0.115,0-0.229-0.014-0.345-0.039c-3.031-0.681-5.985-1.446-8.779-2.277
					c-1.188-0.355-2.357-0.725-3.508-1.105c-0.821-0.271-1.268-1.158-0.995-1.979c0.271-0.821,1.158-1.276,1.98-0.995
					c1.12,0.37,2.258,0.73,3.416,1.074c2.728,0.811,5.61,1.559,8.569,2.223c0.847,0.191,1.378,1.027,1.189,1.872
					C113.614,173.68,112.969,174.178,112.252,174.178z M88.443,166.125c-0.229,0-0.464-0.051-0.684-0.158
					c-4.014-1.945-7.735-4.141-11.065-6.521c-0.703-0.505-0.867-1.482-0.364-2.187c0.5-0.704,1.479-0.872,2.187-0.365
					c3.188,2.279,6.758,4.384,10.61,6.251c0.778,0.378,1.104,1.317,0.728,2.095C89.584,165.799,89.024,166.125,88.443,166.125z
					 M142.402,164.725c-0.865,0-1.566-0.701-1.566-1.566v-0.556c0-3.952-0.158-7.968-0.472-11.938
					c-0.066-0.862,0.578-1.618,1.441-1.687c0.831-0.076,1.614,0.577,1.686,1.441c0.316,4.049,0.478,8.148,0.478,12.183v0.556
					C143.969,164.023,143.267,164.725,142.402,164.725z M68.179,151.433c-0.424,0-0.85-0.171-1.158-0.51
					c-2.937-3.217-5.473-6.753-7.534-10.509c-0.415-0.76-0.138-1.712,0.62-2.13c0.766-0.413,1.715-0.13,2.131,0.62
					c1.938,3.539,4.329,6.871,7.1,9.906c0.584,0.638,0.538,1.63-0.102,2.215C68.934,151.298,68.557,151.433,68.179,151.433z
					 M140.384,139.59c-0.75,0-1.41-0.538-1.543-1.301c-0.728-4.263-1.658-8.338-2.769-12.113c-0.244-0.83,0.229-1.702,1.062-1.944
					c0.834-0.255,1.702,0.229,1.944,1.062c1.146,3.891,2.104,8.085,2.854,12.465c0.146,0.854-0.429,1.664-1.28,1.812
					C140.561,139.585,140.474,139.59,140.384,139.59z M56.16,129.576c-0.689,0-1.319-0.457-1.511-1.15
					c-0.193-0.704-0.375-1.414-0.546-2.13c-0.556-2.357-0.837-4.694-0.837-6.947c0-1.353,0.1-2.705,0.301-4.021
					c0.131-0.857,0.941-1.449,1.783-1.314c0.857,0.127,1.444,0.929,1.314,1.783c-0.176,1.161-0.266,2.355-0.266,3.552
					c0,2.01,0.256,4.105,0.756,6.225c0.16,0.678,0.331,1.352,0.515,2.015c0.232,0.837-0.258,1.699-1.092,1.929
					C56.438,129.556,56.298,129.576,56.16,129.576z M133.118,115.519c-0.584,0-1.143-0.329-1.413-0.891
					c-1.873-3.908-4.036-7.398-6.432-10.373c-0.541-0.674-0.437-1.661,0.239-2.205c0.666-0.538,1.653-0.441,2.205,0.24
					c2.543,3.161,4.837,6.857,6.813,10.98c0.375,0.78,0.046,1.717-0.734,2.092C133.577,115.468,133.345,115.519,133.118,115.519z
					 M60.051,105.694c-0.332,0-0.666-0.102-0.949-0.319c-0.688-0.525-0.821-1.507-0.299-2.196c2.516-3.304,5.817-6.223,9.814-8.672
					c0.743-0.449,1.707-0.217,2.156,0.518c0.451,0.737,0.22,1.704-0.518,2.156c-3.667,2.245-6.68,4.903-8.958,7.896
					C60.989,105.482,60.522,105.694,60.051,105.694z M117.265,96.375c-0.293,0-0.592-0.082-0.857-0.255
					c-3.321-2.179-7.019-3.778-10.985-4.755c-0.84-0.209-1.354-1.056-1.148-1.898c0.207-0.837,1.06-1.35,1.898-1.148
					c4.312,1.064,8.335,2.807,11.955,5.179c0.725,0.475,0.926,1.447,0.452,2.171C118.277,96.127,117.777,96.375,117.265,96.375z
					 M80.95,92.379c-0.679,0-1.301-0.444-1.503-1.125c-0.244-0.832,0.229-1.702,1.06-1.946c3.951-1.166,8.098-1.914,12.322-2.228
					l0.472-0.015c0.773,0.038,1.582,0.671,1.597,1.536c0.019,0.865-0.671,1.582-1.535,1.597l-0.342,0.013
					c-3.963,0.293-7.889,1-11.626,2.103C81.246,92.356,81.096,92.379,80.95,92.379z"/>
			</g>
		</g>
		<g>
			<g>
				<path fill="#445EEA" d="M458.099,103.051h83.783c10.474,0,18.964,8.49,18.964,18.963v43.214c0,10.474-8.49,18.964-18.964,18.964
					h-54.787l-19.706,17.388v-17.388h-9.29c-10.474,0-18.964-8.49-18.964-18.964v-43.214
					C439.135,111.542,447.625,103.051,458.099,103.051z"/>
				<g>
					<g>
						<path fill="#91A8F6" d="M470.286,129.795h59.408c1.313,0,2.376-1.065,2.376-2.377c0-1.313-1.063-2.377-2.376-2.377h-59.408
							c-1.313,0-2.376,1.065-2.376,2.377C467.91,128.73,468.974,129.795,470.286,129.795z"/>
					</g>
					<g>
						<path fill="#91A8F6" d="M470.286,145.637h59.408c1.313,0,2.376-1.065,2.376-2.377s-1.063-2.377-2.376-2.377h-59.408
							c-1.313,0-2.376,1.064-2.376,2.377S468.974,145.637,470.286,145.637z"/>
					</g>
					<g>
						<path fill="#91A8F6" d="M520.981,161.479h8.713c1.313,0,2.376-1.064,2.376-2.377s-1.063-2.377-2.376-2.377h-8.713
							c-1.313,0-2.377,1.064-2.377,2.377S519.669,161.479,520.981,161.479z"/>
					</g>
					<g>
						<path fill="#91A8F6" d="M501.179,161.479h8.713c1.313,0,2.376-1.064,2.376-2.377s-1.063-2.377-2.376-2.377h-8.713
							c-1.313,0-2.377,1.064-2.377,2.377S499.866,161.479,501.179,161.479z"/>
					</g>
					<g>
						<path fill="#91A8F6" d="M470.286,161.479h19.803c1.313,0,2.377-1.064,2.377-2.377s-1.064-2.377-2.377-2.377h-19.803
							c-1.313,0-2.376,1.064-2.376,2.377S468.974,161.479,470.286,161.479z"/>
					</g>
				</g>
			</g>
			<g>
				<path fill="#91A8F6" d="M447.501,189.35h-64.135c-6.308,0-11.42,5.113-11.42,11.42v36.983c0,6.025,4.668,10.949,10.584,11.378
					l-13.225,21.671l34.854-21.628h43.342c6.307,0,11.42-5.113,11.42-11.421V200.77C458.921,194.463,453.808,189.35,447.501,189.35z
					"/>
				<g>
					
						<circle fill="#445EEA" stroke="#445EEA" stroke-width="2.7611" stroke-linecap="round" stroke-linejoin="round" stroke-miterlimit="10" cx="415.434" cy="210.288" r="7.593"/>
					
						<path fill="#445EEA" stroke="#445EEA" stroke-width="2.7611" stroke-linecap="round" stroke-linejoin="round" stroke-miterlimit="10" d="
						M433.381,235.828h-35.895l0,0c0-6.354,5.15-11.504,11.505-11.504h12.885C428.229,224.324,433.381,229.475,433.381,235.828
						L433.381,235.828z"/>
				</g>
			</g>
		</g>
		<g>
			<g>
				<path fill="#445EEA" d="M370.086,129.204c-2.123,0-4.251-0.217-6.319-0.643c-0.85-0.176-1.394-1.005-1.22-1.852
					c0.176-0.853,1.022-1.373,1.853-1.22c3.222,0.666,6.615,0.755,9.84,0.273c0.857-0.12,1.653,0.464,1.783,1.319
					c0.128,0.857-0.462,1.653-1.319,1.784C373.19,129.089,371.637,129.204,370.086,129.204z M384.314,125.543
					c-0.554,0-1.087-0.293-1.376-0.809c-0.418-0.757-0.143-1.712,0.613-2.133c2.897-1.602,5.464-3.691,7.636-6.209
					c0.563-0.656,1.556-0.727,2.209-0.163c0.655,0.563,0.729,1.554,0.163,2.209c-2.411,2.799-5.268,5.123-8.487,6.909
					C384.829,125.479,384.569,125.543,384.314,125.543z M354.438,124.701c-0.283,0-0.573-0.077-0.831-0.24
					c-3.118-1.962-5.84-4.441-8.093-7.368c-0.528-0.687-0.4-1.671,0.286-2.199c0.688-0.526,1.673-0.398,2.199,0.286
					c2.025,2.633,4.475,4.863,7.275,6.628c0.735,0.462,0.954,1.429,0.493,2.161C355.47,124.443,354.96,124.701,354.438,124.701z
					 M397.66,110.034c-0.182,0-0.365-0.033-0.546-0.1c-0.812-0.301-1.226-1.204-0.924-2.015c1.147-3.092,1.732-6.35,1.732-9.685
					c0-0.865,0.701-1.566,1.566-1.566c0.864,0,1.566,0.702,1.566,1.566c0,3.707-0.648,7.335-1.927,10.776
					C398.895,109.641,398.295,110.034,397.66,110.034z M341.983,108.478c-0.671,0-1.291-0.434-1.497-1.107
					c-0.908-2.946-1.367-6.018-1.37-9.133c0-0.584,0.016-1.161,0.049-1.735c0.048-0.865,0.834-1.51,1.652-1.475
					c0.863,0.048,1.526,0.789,1.475,1.653c-0.027,0.513-0.043,1.033-0.043,1.554c0.003,2.804,0.419,5.567,1.232,8.212
					c0.255,0.827-0.209,1.704-1.036,1.959C342.292,108.455,342.137,108.478,341.983,108.478z M398.627,92.711
					c-0.704,0-1.345-0.477-1.521-1.191c-0.799-3.217-2.151-6.235-4.026-8.976c-0.489-0.714-0.306-1.691,0.408-2.179
					c0.712-0.495,1.688-0.309,2.179,0.408c2.087,3.051,3.595,6.412,4.48,9.991c0.209,0.842-0.304,1.691-1.144,1.898
					C398.877,92.695,398.749,92.711,398.627,92.711z M343.127,88.047c-0.209,0-0.424-0.043-0.628-0.133
					c-0.793-0.347-1.155-1.271-0.809-2.064c1.472-3.375,3.521-6.439,6.087-9.098c0.598-0.63,1.593-0.643,2.215-0.041
					c0.625,0.6,0.643,1.592,0.041,2.214c-2.307,2.393-4.146,5.144-5.47,8.18C344.306,87.695,343.731,88.047,343.127,88.047z
					 M387.085,75.809c-0.314,0-0.631-0.092-0.906-0.288c-2.701-1.921-5.696-3.329-8.898-4.184c-0.837-0.225-1.334-1.084-1.112-1.918
					c0.228-0.834,1.076-1.334,1.919-1.112c3.566,0.952,6.9,2.521,9.908,4.659c0.707,0.502,0.87,1.479,0.37,2.186
					C388.06,75.582,387.577,75.809,387.085,75.809z M357.316,73.311c-0.581,0-1.14-0.327-1.41-0.888
					c-0.378-0.781-0.052-1.717,0.729-2.092c3.316-1.602,6.865-2.587,10.547-2.931c0.834-0.079,1.625,0.554,1.707,1.416
					c0.079,0.862-0.554,1.625-1.416,1.707c-3.307,0.309-6.496,1.194-9.476,2.63C357.778,73.26,357.546,73.311,357.316,73.311z"/>
			</g>
			<g>
				<path fill="#445EEA" d="M370.086,83.347c-11.348,0-20.547,6.081-20.547,13.583c0,0.013,0,0.026,0,0.039
					c0.009,1.958,1.554,3.301,2.999,2.684l5.393-2.301c1.298-0.554,1.928-2.444,1.345-4.036l-0.663-1.809c0,0,9.911,1.766,22.871,0
					l-0.669,2.321c-0.423,1.47,0.126,3.108,1.248,3.72l5.334,2.912c1.298,0.708,2.812-0.242,3.109-2.014
					c0.084-0.498,0.127-1.004,0.127-1.517C390.633,89.428,381.434,83.347,370.086,83.347z"/>
				<path fill="#91A8F6" d="M384.317,113.123H355.84l4.22-13.221c0.791-2.479,3.094-4.161,5.696-4.161h8.646
					c2.603,0,4.905,1.683,5.697,4.161L384.317,113.123z"/>
			</g>
		</g>
		<g>
			<g>
				<path fill="#445EEA" d="M553.63,290.249c-2.133,0-4.26-0.217-6.327-0.646c-0.847-0.179-1.393-1.008-1.217-1.854
					c0.179-0.848,1.021-1.381,1.854-1.218c3.213,0.672,6.626,0.758,9.838,0.273c0.857-0.117,1.653,0.462,1.783,1.319
					c0.128,0.856-0.461,1.653-1.318,1.783C556.737,290.132,555.184,290.246,553.63,290.249z M567.856,286.591
					c-0.554,0-1.087-0.294-1.373-0.81c-0.421-0.758-0.148-1.712,0.609-2.13c2.898-1.607,5.468-3.696,7.637-6.212
					c0.563-0.656,1.553-0.73,2.209-0.164c0.655,0.564,0.729,1.554,0.163,2.21c-2.408,2.796-5.266,5.12-8.487,6.906
					C568.371,286.526,568.111,286.591,567.856,286.591z M537.983,285.746c-0.283,0-0.574-0.077-0.832-0.24
					c-3.117-1.964-5.84-4.444-8.09-7.368c-0.528-0.686-0.4-1.671,0.286-2.199c0.688-0.525,1.671-0.397,2.199,0.286
					c2.022,2.633,4.472,4.863,7.273,6.628c0.734,0.462,0.954,1.429,0.492,2.161C539.015,285.488,538.504,285.746,537.983,285.746z
					 M581.201,271.081c-0.181,0-0.364-0.033-0.546-0.1c-0.811-0.301-1.225-1.204-0.923-2.015c1.147-3.093,1.731-6.351,1.731-9.685
					c0-0.865,0.702-1.566,1.566-1.566c0.865,0,1.567,0.701,1.567,1.566c0,3.707-0.648,7.335-1.927,10.776
					C582.437,270.691,581.837,271.081,581.201,271.081z M525.523,269.52c-0.671,0-1.291-0.434-1.498-1.106
					c-0.908-2.947-1.367-6.019-1.367-9.131c0-0.582,0.015-1.158,0.048-1.732c0.049-0.865,0.903-1.523,1.651-1.478
					c0.864,0.049,1.525,0.788,1.477,1.65c-0.027,0.519-0.043,1.039-0.043,1.56c0,2.799,0.413,5.562,1.229,8.207
					c0.256,0.826-0.209,1.704-1.035,1.959C525.832,269.497,525.676,269.52,525.523,269.52z M582.174,253.759
					c-0.704,0-1.345-0.478-1.521-1.191c-0.799-3.215-2.153-6.233-4.026-8.974c-0.489-0.714-0.306-1.691,0.408-2.179
					c0.715-0.494,1.689-0.306,2.179,0.408c2.087,3.049,3.595,6.412,4.48,9.988c0.209,0.84-0.304,1.691-1.144,1.898
					C582.424,253.743,582.296,253.759,582.174,253.759z M526.671,249.092c-0.209,0-0.423-0.043-0.627-0.132
					c-0.794-0.348-1.156-1.271-0.809-2.064c1.477-3.378,3.525-6.439,6.09-9.098c0.597-0.633,1.592-0.643,2.214-0.041
					c0.625,0.6,0.643,1.592,0.041,2.215c-2.304,2.391-4.146,5.144-5.473,8.179C527.85,248.74,527.273,249.092,526.671,249.092z
					 M570.632,236.861c-0.313,0-0.63-0.092-0.906-0.288c-2.706-1.926-5.701-3.335-8.898-4.187c-0.837-0.225-1.334-1.084-1.112-1.919
					c0.225-0.834,1.077-1.324,1.919-1.112c3.562,0.952,6.896,2.521,9.908,4.661c0.707,0.503,0.87,1.479,0.37,2.187
					C571.606,236.635,571.124,236.861,570.632,236.861z M540.864,234.354c-0.582,0-1.141-0.326-1.411-0.888
					c-0.378-0.78-0.052-1.717,0.729-2.092c3.319-1.603,6.87-2.587,10.549-2.929c0.883-0.079,1.628,0.559,1.707,1.415
					c0.079,0.863-0.556,1.628-1.416,1.707c-3.306,0.307-6.495,1.189-9.478,2.628C541.325,234.303,541.094,234.354,540.864,234.354z"
					/>
			</g>
			<g>
				<rect x="535.157" y="253.704" fill="#91A8F6" width="36.451" height="20.67"/>
				<g>
					<g>
						<path fill="#445EEA" d="M566.61,252.065v-2.529c0-1.862,1.51-3.372,3.371-3.372l0,0c1.862,0,3.372,1.51,3.372,3.372v4.193
							h-6.743"/>
						<path fill="#E0EEF7" d="M566.677,249.487v21.483h-24.852v-21.483c0-1.861,1.51-3.371,3.371-3.371h24.571l-0.683,0.142
							C567.692,246.673,566.677,247.961,566.677,249.487z"/>
					</g>
					<g>
						<rect x="543.371" y="249.614" fill="#445EEA" width="5.51" height="5.657"/>
						<g>
							<g>
								
									<line fill="none" stroke="#445EEA" stroke-width="0.6576" stroke-linecap="round" stroke-linejoin="round" stroke-miterlimit="10" x1="550.569" y1="249.582" x2="564.578" y2="249.582"/>
								
									<line fill="none" stroke="#445EEA" stroke-width="0.6576" stroke-linecap="round" stroke-linejoin="round" stroke-miterlimit="10" x1="550.569" y1="251.487" x2="564.578" y2="251.487"/>
								
									<line fill="none" stroke="#445EEA" stroke-width="0.6576" stroke-linecap="round" stroke-linejoin="round" stroke-miterlimit="10" x1="550.569" y1="253.393" x2="564.578" y2="253.393"/>
								
									<line fill="none" stroke="#445EEA" stroke-width="0.6576" stroke-linecap="round" stroke-linejoin="round" stroke-miterlimit="10" x1="550.701" y1="255.298" x2="564.71" y2="255.298"/>
							</g>
							
								<line fill="none" stroke="#445EEA" stroke-width="0.6576" stroke-linecap="round" stroke-linejoin="round" stroke-miterlimit="10" x1="543.371" y1="257.177" x2="564.578" y2="257.177"/>
							
								<line fill="none" stroke="#445EEA" stroke-width="0.6576" stroke-linecap="round" stroke-linejoin="round" stroke-miterlimit="10" x1="543.371" y1="259.081" x2="564.578" y2="259.081"/>
							
								<line fill="none" stroke="#445EEA" stroke-width="0.6576" stroke-linecap="round" stroke-linejoin="round" stroke-miterlimit="10" x1="543.371" y1="260.944" x2="564.578" y2="260.944"/>
							
								<line fill="none" stroke="#445EEA" stroke-width="0.6576" stroke-linecap="round" stroke-linejoin="round" stroke-miterlimit="10" x1="543.371" y1="262.85" x2="553.678" y2="262.85"/>
						</g>
					</g>
				</g>
				<polygon fill="#445EEA" points="562.653,274.374 535.157,274.374 535.157,253.704 				"/>
				<polygon fill="#445EEA" points="544.112,274.374 571.608,274.374 571.608,253.704 				"/>
				<path fill="#445EEA" d="M571.608,274.374h-18.226h-18.226l16.371-8.743c1.115-0.773,2.594-0.773,3.709,0L571.608,274.374z"/>
			</g>
		</g>
	</g>
</g>
</svg>
