<svg xmlns="http://www.w3.org/2000/svg" width="480" height="480" viewBox="0 0 480 480">
  <g id="contract" transform="translate(-16 -16)">
    <path id="Path_5" data-name="Path 5" d="M456,16H104A40.046,40.046,0,0,0,64,56V384H24a8,8,0,0,0-8,8v16a48.054,48.054,0,0,0,48,48H88a40.045,40.045,0,0,0,40,40H456a40.046,40.046,0,0,0,40-40V56A40.046,40.046,0,0,0,456,16Zm24,40V72H456V56a39.79,39.79,0,0,0-8.022-24H456a24.027,24.027,0,0,1,24,24ZM416,32a24.028,24.028,0,0,1,24,24V72H416V56a39.79,39.79,0,0,0-8.022-24ZM80,56a24.027,24.027,0,0,1,24-24H376a24.028,24.028,0,0,1,24,24V72H80Zm0,32H400V408a32,32,0,0,1-64,0V392a8,8,0,0,0-8-8H80ZM64,440a32.036,32.036,0,0,1-32-32v-8H320v8a47.808,47.808,0,0,0,12.252,32Zm64,40a24.027,24.027,0,0,1-24-24H368a48.055,48.055,0,0,0,48-48V88h24V456a24.028,24.028,0,0,1-24,24Zm352-24a24.027,24.027,0,0,1-24,24h-8.022A39.79,39.79,0,0,0,456,456V88h24Z" fill="#ffc64f"/>
    <path id="Path_6" data-name="Path 6" d="M240,224a48,48,0,1,0-48-48,48,48,0,0,0,48,48Zm0-80a32,32,0,1,1-32,32A32,32,0,0,1,240,144Z" fill="#ffc64f"/>
    <path id="Path_7" data-name="Path 7" d="M184,248h16v16H184Z" fill="#ffc64f"/>
    <path id="Path_8" data-name="Path 8" d="M280,248h16v16H280Z" fill="#ffc64f"/>
    <path id="Path_9" data-name="Path 9" d="M216,248h48v16H216Z" fill="#ffc64f"/>
    <path id="Path_10" data-name="Path 10" d="M160,288h40v16H160Z" fill="#ffc64f"/>
    <path id="Path_11" data-name="Path 11" d="M216,288H320v16H216Z" fill="#ffc64f"/>
    <path id="Path_12" data-name="Path 12" d="M160,328h88v16H160Z" fill="#ffc64f"/>
    <path id="Path_13" data-name="Path 13" d="M264,328h56v16H264Z" fill="#ffc64f"/>
  </g>
</svg>
