<svg id="Layer_5" enable-background="new 0 0 64 64" height="512" viewBox="0 0 64 64" width="512" xmlns="http://www.w3.org/2000/svg" xmlns:xlink="http://www.w3.org/1999/xlink"><linearGradient id="SVGID_1_" gradientUnits="userSpaceOnUse" x1="32" x2="32" y1="63" y2="1"><stop offset="0" stop-color="#9f2fff"/><stop offset="1" stop-color="#0bb1d3"/></linearGradient><path d="m46 59c0-6.199-4.053-11.462-9.646-13.298 2.191-1.428 3.646-3.897 3.646-6.702 0-4.411-3.589-8-8-8s-8 3.589-8 8c0 2.805 1.455 5.274 3.646 6.702-5.593 1.836-9.646 7.099-9.646 13.298v4h28zm-8.414-2-4 4h-.202l4.171-12.627c.716.376 1.391.818 2.013 1.325l-.478 2.708-3.659 2.439zm-12.675-4.595-.478-2.708c.622-.507 1.297-.949 2.013-1.325l4.171 12.628h-.202l-4-4 2.156-2.155zm1.089-13.405c0-3.309 2.691-6 6-6s6 2.691 6 6-2.691 6-6 6-6-2.691-6-6zm9.706 8.592-3.706 11.219-3.705-11.219c1.168-.38 2.412-.592 3.705-.592 1.294 0 2.537.212 3.706.592zm-15.706 11.408c0-2.872 1.017-5.51 2.706-7.578l.383 2.173 2.341 1.561-1.844 1.844 4 4h-7.586zm24 2h-7.586l4-4-1.844-1.845 2.341-1.561.383-2.173c1.689 2.069 2.706 4.707 2.706 7.579zm-17-32h10v-12h4.869l-9.869-14.803-9.869 14.803h4.869zm-1.131-14 6.131-9.197 6.131 9.197h-3.131v12h-6v-12zm-23.144-.275 3.449 17.247 3.389-3.389 8.506 8.845 7.358-7.358-8.845-8.506 3.389-3.389zm19.847 15.373-4.474 4.474-8.506-8.845-2.189 2.188-2.128-10.64 10.641 2.128-2.188 2.189zm16-.028 7.358 7.358 8.506-8.845 3.389 3.389 3.449-17.247-17.247 3.449 3.389 3.389zm20.153-12.795-2.128 10.641-2.189-2.188-8.506 8.845-4.474-4.474 8.845-8.506-2.188-2.189zm-54.725-10.275c1.654 0 3-1.346 3-3s-1.346-3-3-3-3 1.346-3 3 1.346 3 3 3zm0-4c.551 0 1 .449 1 1s-.449 1-1 1-1-.449-1-1 .449-1 1-1zm7.95 10.364 1.414-1.414 1.343 1.343-1.414 1.414zm-5.657-5.657 1.414-1.414 1.414 1.414-1.414 1.414zm4.243 4.243-1.414-1.414 1.414-1.414 1.414 1.414zm-6.536 51.05c1.654 0 3-1.346 3-3s-1.346-3-3-3-3 1.346-3 3 1.346 3 3 3zm0-4c.551 0 1 .449 1 1s-.449 1-1 1-1-.449-1-1 .449-1 1-1zm3.707-4.121 1.414 1.414-1.414 1.414-1.414-1.414zm4.243-4.243 1.343-1.343 1.414 1.414-1.343 1.343zm-1.414 4.242-1.414-1.414 1.414-1.414 1.414 1.414zm49.464 2.122c-1.654 0-3 1.346-3 3s1.346 3 3 3 3-1.346 3-3-1.346-3-3-3zm0 4c-.551 0-1-.449-1-1s.449-1 1-1 1 .449 1 1-.449 1-1 1zm-3.707-3.293-1.414-1.414 1.414-1.414 1.414 1.414zm-5.657-5.657-1.343-1.343 1.414-1.414 1.343 1.343zm2.828 2.828-1.414-1.414 1.414-1.414 1.414 1.414zm6.536-53.878c-1.654 0-3 1.346-3 3s1.346 3 3 3 3-1.346 3-3-1.346-3-3-3zm0 4c-.551 0-1-.449-1-1s.449-1 1-1 1 .449 1 1-.449 1-1 1zm-6.536 6.95-1.414-1.414 1.414-1.414 1.414 1.414zm-2.757 2.757-1.414-1.414 1.343-1.343 1.414 1.414zm5.586-5.586-1.414-1.414 1.414-1.414 1.414 1.414zm3.707 28.879c-1.654 0-3 1.346-3 3s1.346 3 3 3 3-1.346 3-3-1.346-3-3-3zm0 4c-.551 0-1-.449-1-1s.449-1 1-1 1 .449 1 1-.449 1-1 1zm-9 0h-2v-2h2zm-4 0h-2v-2h2zm8 0h-2v-2h2zm-51 2c1.654 0 3-1.346 3-3s-1.346-3-3-3-3 1.346-3 3 1.346 3 3 3zm0-4c.551 0 1 .449 1 1s-.449 1-1 1-1-.449-1-1 .449-1 1-1zm15 2h-2v-2h2zm-4 0h-2v-2h2zm-4 0h-2v-2h2z" fill="url(#SVGID_1_)"/></svg>