<svg xmlns="http://www.w3.org/2000/svg" width="54" height="60" viewBox="0 0 54 60">
  <g id="Resume" transform="translate(-5 -2)">
    <path id="Path_26" data-name="Path 26" d="M15,32H41v2H15Z" fill="#216fc7"/>
    <path id="Path_27" data-name="Path 27" d="M15,36h6v2H15Z" fill="#216fc7"/>
    <path id="Path_28" data-name="Path 28" d="M23,36H37v2H23Z" fill="#216fc7"/>
    <path id="Path_29" data-name="Path 29" d="M39,36h2v2H39Z" fill="#216fc7"/>
    <path id="Path_30" data-name="Path 30" d="M15,40h2v2H15Z" fill="#216fc7"/>
    <path id="Path_31" data-name="Path 31" d="M19,40H29v2H19Z" fill="#216fc7"/>
    <path id="Path_32" data-name="Path 32" d="M31,40H41v2H31Z" fill="#216fc7"/>
    <path id="Path_33" data-name="Path 33" d="M15,44H37v2H15Z" fill="#216fc7"/>
    <path id="Path_34" data-name="Path 34" d="M39,44h2v2H39Z" fill="#216fc7"/>
    <path id="Path_35" data-name="Path 35" d="M15,48H41v2H15Z" fill="#216fc7"/>
    <path id="Path_36" data-name="Path 36" d="M16,30H32a1,1,0,0,0,1-1V28a7.011,7.011,0,0,0-6-6.929v-1.1A4.977,4.977,0,0,0,29,16V15a1,1,0,0,0,1-1V12a6,6,0,0,0-12,0v2a1,1,0,0,0,1,1v1a4.977,4.977,0,0,0,2,3.974v1.1A7.011,7.011,0,0,0,15,28v1A1,1,0,0,0,16,30Zm4-18a4,4,0,0,1,8,0v1h-.172a1,1,0,0,1-.707-.293l-1.414-1.414a1,1,0,0,0-1.414,0l-.828.828A2.98,2.98,0,0,1,21.343,13H20Zm1.343,3a4.969,4.969,0,0,0,3.536-1.465L25,13.414l.707.707A2.98,2.98,0,0,0,27,14.87V16a3,3,0,1,1-6,0V15ZM24,21a5,5,0,0,0,1-.1v.687l-1,1-1-1V20.9a5,5,0,0,0,1,.1Zm-2.376,2.038,1.669,1.669a1,1,0,0,0,1.414,0l1.669-1.669A4.991,4.991,0,0,1,31,28H17a4.991,4.991,0,0,1,4.624-4.962Z" fill="#216fc7"/>
    <path id="Path_37" data-name="Path 37" d="M59,20a11.961,11.961,0,0,0-4-8.919V5a3,3,0,0,0-3-3H14a3,3,0,0,0-3,3V52H6a1,1,0,0,0-1,1v4a5.006,5.006,0,0,0,5,5H50a5.006,5.006,0,0,0,5-5V28.919A11.961,11.961,0,0,0,59,20Zm-2,0A10,10,0,1,1,47,10,10,10,0,0,1,57,20ZM49,48H45V40h4ZM45,36h4v2H45Zm1-2V31.949c.331.028.662.051,1,.051s.669-.023,1-.051V34ZM10,60a3,3,0,0,1-3-3V54H45v3a4.989,4.989,0,0,0,1,3Zm43-3a3,3,0,1,1-6,0V53a1,1,0,0,0-1-1H13V5a1,1,0,0,1,1-1H52a1,1,0,0,1,1,1V9.623a11.988,11.988,0,1,0-9,21.982V34a1,1,0,0,0-1,1V48a2,2,0,0,0,2,2h4a2,2,0,0,0,2-2V35a1,1,0,0,0-1-1V31.6a11.91,11.91,0,0,0,3-1.228Z" fill="#216fc7"/>
    <path id="Path_38" data-name="Path 38" d="M47,12a8,8,0,1,0,8,8,8,8,0,0,0-8-8Zm0,14a6,6,0,1,1,6-6,6,6,0,0,1-6,6Z" fill="#216fc7"/>
  </g>
</svg>
